<svg width="64" height="65" viewBox="0 0 64 65" fill="none" xmlns="http://www.w3.org/2000/svg">
<rect y="0.705078" width="64" height="64" rx="32" fill="#CB34FF" fill-opacity="0.2"/>
<path d="M30.46 48.0451V17.9651H33.084V48.0451H30.46ZM31.452 44.5251C29.7027 44.5251 28.028 44.2797 26.428 43.7891C24.828 43.2771 23.5587 42.6264 22.62 41.8371L24.06 38.6051C24.956 39.3091 26.0653 39.8957 27.388 40.3651C28.7107 40.8344 30.0653 41.0691 31.452 41.0691C32.6253 41.0691 33.5747 40.9411 34.3 40.6851C35.0253 40.4291 35.5587 40.0877 35.9 39.6611C36.2413 39.2131 36.412 38.7117 36.412 38.1571C36.412 37.4744 36.1667 36.9304 35.676 36.5251C35.1853 36.0984 34.5453 35.7677 33.756 35.5331C32.988 35.2771 32.124 35.0424 31.164 34.8291C30.2253 34.6157 29.276 34.3704 28.316 34.0931C27.3773 33.7944 26.5133 33.4211 25.724 32.9731C24.956 32.5037 24.3267 31.8851 23.836 31.1171C23.3453 30.3491 23.1 29.3677 23.1 28.1731C23.1 26.9571 23.42 25.8477 24.06 24.8451C24.7213 23.8211 25.7133 23.0104 27.036 22.4131C28.38 21.7944 30.076 21.4851 32.124 21.4851C33.468 21.4851 34.8013 21.6557 36.124 21.9971C37.4467 22.3384 38.5987 22.8291 39.58 23.4691L38.268 26.7011C37.2653 26.1037 36.2307 25.6664 35.164 25.3891C34.0973 25.0904 33.0733 24.9411 32.092 24.9411C30.94 24.9411 30.0013 25.0797 29.276 25.3571C28.572 25.6344 28.0493 25.9971 27.708 26.4451C27.388 26.8931 27.228 27.4051 27.228 27.9811C27.228 28.6637 27.4627 29.2184 27.932 29.6451C28.4227 30.0504 29.052 30.3704 29.82 30.6051C30.6093 30.8397 31.484 31.0744 32.444 31.3091C33.404 31.5224 34.3533 31.7677 35.292 32.0451C36.252 32.3224 37.116 32.6851 37.884 33.1331C38.6733 33.5811 39.3027 34.1891 39.772 34.9571C40.2627 35.7251 40.508 36.6957 40.508 37.8691C40.508 39.0637 40.1773 40.1731 39.516 41.1971C38.876 42.1997 37.884 43.0104 36.54 43.6291C35.196 44.2264 33.5 44.5251 31.452 44.5251Z" fill="#CB34FF"/>
</svg>
