<svg width="65" height="65" viewBox="0 0 65 65" fill="none" xmlns="http://www.w3.org/2000/svg">
<rect x="0.375488" y="0.205078" width="64" height="64" rx="32" fill="#27AE60" fill-opacity="0.2"/>
<path d="M24.7348 43.7288V20.6812H33.7917C36.7557 20.6812 39.0941 21.3397 40.8066 22.6567C42.5192 23.9517 43.3755 25.8504 43.3755 28.3527C43.3755 30.855 42.5192 32.7647 40.8066 34.0817C39.0941 35.3987 36.7557 36.0572 33.7917 36.0572H26.5791L28.0611 34.5097V43.7288H24.7348ZM28.0611 34.839L26.5791 33.3244H33.7917C35.8116 33.3244 37.3595 32.8964 38.4354 32.0403C39.5112 31.1843 40.0491 29.9661 40.0491 28.3856C40.0491 26.8272 39.5112 25.6309 38.4354 24.7968C37.3595 23.9627 35.8116 23.5456 33.7917 23.5456H26.5791L28.0611 21.8994V34.839ZM21.3755 39.8765V37.9998H35.3725V39.8765H21.3755Z" fill="#27AE60"/>
</svg>
