<svg width="405" height="228" viewBox="0 0 405 228" fill="none" xmlns="http://www.w3.org/2000/svg">
<path d="M388.979 78.2046C390.804 87.95 387.502 98.6479 379.741 109.598C371.983 120.542 359.832 131.642 344.175 142.123C312.867 163.082 267.699 181.457 216.154 191.144C164.59 200.834 116.419 201.418 80.2369 194.56C62.1425 191.131 47.0994 185.85 36.1348 178.96C25.1715 172.071 18.3719 163.632 16.5467 153.889C14.7188 144.133 17.9121 133.167 25.503 121.824C33.0887 110.488 45.0064 98.8693 60.4241 87.8717C91.2555 65.8792 135.941 46.47 187.471 36.7859C239.02 27.0982 287.658 27.5525 324.314 35.4468C342.644 39.3946 357.93 45.1927 369.079 52.4739C380.232 59.7576 387.153 68.46 388.979 78.2046Z" fill="url(#paint0_linear_766_8025)" stroke="url(#paint1_linear_766_8025)" stroke-width="2"/>
<path d="M58.9768 127.333C57.9016 127.531 56.879 127.536 55.9091 127.349C54.9392 127.162 54.0619 126.815 53.2773 126.309C52.4903 125.79 51.8348 125.138 51.3107 124.353C50.7842 123.555 50.4269 122.645 50.2386 121.622C50.0503 120.599 50.0613 119.628 50.2715 118.708C50.4794 117.775 50.8597 116.932 51.4126 116.179C51.9631 115.413 52.6581 114.77 53.4977 114.249C54.3372 113.728 55.2881 113.37 56.3502 113.174C57.4254 112.976 58.4414 112.972 59.3983 113.161C60.3682 113.349 61.2467 113.702 62.0337 114.221C62.8183 114.727 63.4738 115.379 64.0003 116.177C64.5243 116.962 64.8805 117.866 65.0688 118.888C65.257 119.911 65.2473 120.889 65.0394 121.822C64.8316 122.755 64.4512 123.598 63.8984 124.351C63.3455 125.104 62.6493 125.741 61.8097 126.261C60.9832 126.78 60.0389 127.137 58.9768 127.333ZM58.5444 125.094C59.2393 124.966 59.8601 124.729 60.4067 124.385C60.9534 124.04 61.4032 123.611 61.7562 123.099C62.1069 122.573 62.3471 122 62.4769 121.38C62.6174 120.744 62.6225 120.071 62.4922 119.363C62.3618 118.655 62.119 118.036 61.7636 117.505C61.419 116.958 60.9905 116.508 60.4781 116.155C59.9633 115.789 59.3892 115.543 58.7557 115.415C58.1222 115.288 57.4579 115.288 56.763 115.417C56.068 115.545 55.4472 115.781 54.9006 116.126C54.3671 116.468 53.9185 116.903 53.5547 117.431C53.2017 117.944 52.9549 118.518 52.8144 119.154C52.6846 119.775 52.6848 120.439 52.8152 121.147C52.9431 121.842 53.1794 122.463 53.5241 123.009C53.8818 123.554 54.3181 124.009 54.8329 124.375C55.3452 124.728 55.9182 124.968 56.5517 125.095C57.1852 125.222 57.8494 125.222 58.5444 125.094ZM73.6924 124.559C72.591 124.762 71.5653 124.714 70.6154 124.415C69.6762 124.1 68.8892 123.58 68.2543 122.857C67.6195 122.133 67.2068 121.253 67.0161 120.217C66.823 119.168 66.8954 118.199 67.2333 117.31C67.5688 116.407 68.1204 115.648 68.8883 115.032C69.6692 114.414 70.6104 114.003 71.7118 113.8C72.7346 113.611 73.6714 113.656 74.5223 113.933C75.3839 114.194 76.0915 114.687 76.6453 115.412L74.9598 116.862C74.5534 116.422 74.099 116.126 73.5966 115.974C73.1074 115.82 72.6005 115.792 72.076 115.888C71.4728 116 70.9528 116.231 70.5159 116.583C70.079 116.934 69.7688 117.385 69.5851 117.934C69.3991 118.47 69.3688 119.079 69.4943 119.761C69.6198 120.443 69.8661 121.007 70.2332 121.455C70.5979 121.889 71.047 122.193 71.5804 122.366C72.1138 122.538 72.6821 122.569 73.2853 122.458C73.8098 122.361 74.2732 122.154 74.6756 121.836C75.0911 121.515 75.4103 121.077 75.6333 120.52L77.7243 121.274C77.4626 122.136 76.9782 122.855 76.2711 123.433C75.5748 123.995 74.7152 124.371 73.6924 124.559ZM81.8536 127C81.3422 127.094 80.8151 127.103 80.2723 127.027C79.7296 126.951 79.26 126.794 78.8635 126.555L79.5138 124.564C79.804 124.741 80.1185 124.866 80.4574 124.939C80.7962 125.012 81.1295 125.019 81.4573 124.958C81.9032 124.876 82.2432 124.698 82.4776 124.424C82.7119 124.151 82.8988 123.73 83.0382 123.162L83.3945 121.673L83.5369 121.341L85.801 111.325L88.1612 110.89L85.3332 123.146C85.1502 123.993 84.8978 124.683 84.5757 125.217C84.2669 125.749 83.8802 126.152 83.4157 126.427C82.9643 126.701 82.4436 126.891 81.8536 127ZM83.3581 123.022L76.6157 113.018L79.1726 112.547L84.6969 120.904L83.3581 123.022ZM98.4796 117.692L98.0571 118.38L96.3988 109.371L98.8574 108.918L100.516 117.927L99.817 117.446L105.01 116.488L104.548 117.184L102.889 108.175L105.348 107.722L107.282 118.225L91.8023 121.079L89.8688 110.575L92.3274 110.122L93.9857 119.131L93.3067 118.646L98.4796 117.692ZM106.893 120.534L106.383 117.761L107.065 118.265L104.744 118.693L104.36 116.608L108.412 115.861L109.194 120.11L106.893 120.534ZM115.51 116.851C114.343 117.066 113.278 117.025 112.315 116.728C111.363 116.416 110.569 115.897 109.935 115.174C109.313 114.448 108.907 113.567 108.716 112.531C108.523 111.482 108.582 110.515 108.894 109.631C109.216 108.731 109.742 107.976 110.47 107.367C111.212 106.756 112.107 106.354 113.156 106.161C114.179 105.972 115.131 106.027 116.013 106.325C116.895 106.624 117.64 107.137 118.249 107.866C118.857 108.594 119.263 109.509 119.466 110.61C119.485 110.715 119.5 110.835 119.511 110.968C119.536 111.099 119.552 111.225 119.56 111.345L110.808 112.959L110.507 111.326L117.962 109.952L117.092 110.641C116.994 110.036 116.772 109.528 116.425 109.117C116.078 108.706 115.652 108.412 115.144 108.234C114.65 108.054 114.108 108.019 113.518 108.128C112.915 108.239 112.408 108.468 111.997 108.815C111.6 109.159 111.313 109.591 111.138 110.112C110.973 110.617 110.949 111.184 111.065 111.813L111.137 112.207C111.253 112.836 111.5 113.367 111.878 113.799C112.255 114.231 112.731 114.53 113.304 114.695C113.876 114.861 114.504 114.881 115.185 114.755C115.776 114.646 116.29 114.457 116.728 114.186C117.166 113.915 117.533 113.55 117.827 113.089L119.424 114.36C119.053 114.998 118.535 115.534 117.87 115.969C117.215 116.388 116.428 116.682 115.51 116.851ZM127.916 114.564C126.814 114.767 125.789 114.719 124.839 114.42C123.899 114.105 123.112 113.585 122.478 112.862C121.843 112.138 121.43 111.258 121.239 110.223C121.046 109.174 121.119 108.204 121.457 107.315C121.792 106.413 122.344 105.653 123.112 105.037C123.892 104.419 124.834 104.008 125.935 103.805C126.958 103.616 127.895 103.661 128.746 103.938C129.607 104.199 130.315 104.692 130.869 105.417L129.183 106.867C128.777 106.427 128.322 106.131 127.82 105.979C127.331 105.826 126.824 105.797 126.299 105.894C125.696 106.005 125.176 106.236 124.739 106.588C124.302 106.94 123.992 107.39 123.808 107.939C123.622 108.475 123.592 109.084 123.718 109.766C123.843 110.448 124.089 111.012 124.456 111.46C124.821 111.894 125.27 112.198 125.804 112.371C126.337 112.544 126.905 112.574 127.509 112.463C128.033 112.367 128.496 112.159 128.899 111.841C129.314 111.52 129.634 111.082 129.857 110.526L131.948 111.279C131.686 112.141 131.201 112.86 130.494 113.438C129.798 114 128.938 114.376 127.916 114.564ZM136.646 112.813L134.987 103.804L135.666 104.289L131.398 105.076L131.015 102.991L140.849 101.178L141.233 103.263L136.984 104.046L137.446 103.351L139.104 112.359L136.646 112.813ZM144.566 111.353L142.632 100.849L147.766 99.903C149.038 99.6686 150.078 99.7209 150.886 100.06C151.707 100.397 152.197 100.998 152.357 101.863C152.513 102.716 152.296 103.447 151.703 104.058C151.108 104.656 150.247 105.059 149.119 105.267L149.302 104.602C150.574 104.368 151.561 104.43 152.265 104.788C152.978 105.131 153.417 105.749 153.582 106.64C153.753 107.571 153.54 108.363 152.941 109.016C152.34 109.655 151.332 110.106 149.916 110.367L144.566 111.353ZM146.577 109.131L149.389 108.613C150.058 108.49 150.544 108.292 150.846 108.019C151.146 107.733 151.255 107.368 151.173 106.922C151.086 106.45 150.865 106.131 150.509 105.966C150.153 105.801 149.641 105.781 148.972 105.904L146.081 106.437L146.577 109.131ZM145.78 104.804L148.357 104.329C148.986 104.213 149.438 104.015 149.711 103.734C149.996 103.437 150.099 103.079 150.022 102.66C149.943 102.227 149.719 101.936 149.353 101.787C149 101.635 148.508 101.617 147.879 101.733L145.302 102.208L145.78 104.804ZM155.206 109.371L154.944 107.284C155.038 107.28 155.125 107.278 155.206 107.276C155.288 107.275 155.361 107.268 155.426 107.256C155.833 107.181 156.125 106.999 156.302 106.708C156.479 106.418 156.581 106.054 156.609 105.615C156.647 105.16 156.638 104.667 156.58 104.135C156.534 103.588 156.474 103.043 156.402 102.501L155.833 98.4161L164.33 96.8499L166.263 107.353L163.804 107.807L162.132 98.7192L162.825 99.2829L157.829 100.204L158.234 99.4174L158.607 102.216C158.739 103.154 158.819 104.034 158.848 104.856C158.888 105.662 158.845 106.382 158.717 107.016C158.603 107.647 158.373 108.164 158.027 108.567C157.694 108.967 157.219 109.224 156.603 109.337C156.406 109.374 156.186 109.394 155.943 109.398C155.713 109.4 155.467 109.391 155.206 109.371ZM176.242 105.514L175.583 101.934L176.013 102.282L172.866 102.862C171.424 103.128 170.234 103.035 169.297 102.584C168.37 102.118 167.801 101.308 167.588 100.154C167.362 98.9212 167.622 97.9039 168.369 97.1018C169.129 96.2973 170.237 95.761 171.692 95.4927L176.511 94.6044L178.445 105.108L176.242 105.514ZM168.689 106.906L170.783 102.372L173.3 101.907L171.325 106.42L168.689 106.906ZM175.438 101.147L174.569 96.4267L175.043 97.0105L172.151 97.5435C171.391 97.6837 170.827 97.9367 170.461 98.3025C170.105 98.6528 169.985 99.1427 170.101 99.7721C170.318 100.952 171.194 101.401 172.728 101.118L175.698 100.571L175.438 101.147ZM180.214 104.761L179.952 102.674C180.046 102.671 180.134 102.668 180.215 102.667C180.296 102.665 180.369 102.659 180.435 102.646C180.841 102.571 181.133 102.389 181.31 102.099C181.487 101.808 181.59 101.444 181.617 101.005C181.656 100.55 181.646 100.057 181.589 99.5255C181.542 98.9782 181.483 98.4333 181.41 97.8909L180.841 93.8063L189.338 92.2401L191.271 102.744L188.813 103.197L187.14 94.1095L187.834 94.6731L182.838 95.594L183.242 94.8077L183.615 97.6064C183.747 98.5447 183.828 99.4247 183.857 100.246C183.897 101.052 183.853 101.772 183.726 102.406C183.611 103.037 183.381 103.554 183.035 103.957C182.702 104.357 182.227 104.614 181.611 104.728C181.414 104.764 181.194 104.784 180.951 104.788C180.721 104.79 180.475 104.781 180.214 104.761ZM194.583 102.133L192.649 91.6298L195.108 91.1766L196.382 98.1003L200.91 90.1071L203.152 89.6938L205.086 100.197L202.627 100.65L201.353 93.7268L196.844 101.716L194.583 102.133ZM213.829 98.5857L211.895 88.0822L221.965 86.2259L223.899 96.7294L221.46 97.179L219.805 88.19L220.481 88.6553L214.167 89.8191L214.633 89.1435L216.287 98.1325L213.829 98.5857ZM231.923 95.3928C230.848 95.591 229.848 95.5379 228.925 95.2337C227.998 94.9163 227.218 94.3958 226.583 93.6722C225.948 92.9486 225.536 92.0689 225.345 91.033C225.152 89.9839 225.224 89.0147 225.562 88.1254C225.898 87.223 226.443 86.4649 227.197 85.8513C227.952 85.2377 228.867 84.8317 229.942 84.6335C231.031 84.4329 232.037 84.4848 232.96 84.789C233.897 85.0909 234.675 85.5983 235.294 86.3111C235.927 87.0216 236.341 87.9079 236.536 88.9701C236.727 90.006 236.655 90.9752 236.319 91.8776C235.997 92.7776 235.453 93.5422 234.687 94.1714C233.933 94.785 233.011 95.1922 231.923 95.3928ZM231.535 93.2881C232.139 93.177 232.652 92.9467 233.076 92.5975C233.5 92.2482 233.797 91.8002 233.967 91.2536C234.151 90.7045 234.181 90.0956 234.058 89.4269C233.933 88.745 233.687 88.1868 233.323 87.7524C232.969 87.3025 232.532 86.9899 232.011 86.8146C231.491 86.6394 230.936 86.6061 230.346 86.7149C229.743 86.8261 229.229 87.0563 228.805 87.4056C228.395 87.7524 228.098 88.2004 227.914 88.7494C227.728 89.2854 227.698 89.8943 227.823 90.5762C227.946 91.2449 228.191 91.8031 228.558 92.2506C228.926 92.6981 229.363 93.0107 229.87 93.1884C230.39 93.3637 230.945 93.3969 231.535 93.2881ZM247.465 92.3856L242.742 88.0499L244.52 86.4409L250.356 91.8526L247.465 92.3856ZM239.932 93.7741L237.998 83.2706L240.457 82.8174L242.39 93.3209L239.932 93.7741ZM240.888 89.2458L240.511 87.2002L244.071 86.544L244.448 88.5896L240.888 89.2458ZM244.999 87.7153L242.647 87.8641L245.531 81.882L248.167 81.3962L244.999 87.7153ZM258.271 90.3937L257.88 88.2694L257.659 87.8424L256.975 84.1249C256.842 83.4037 256.523 82.8862 256.018 82.5726C255.51 82.2459 254.817 82.1635 253.939 82.3254C253.349 82.4342 252.782 82.6335 252.239 82.9234C251.709 83.2109 251.277 83.5549 250.944 83.9552L249.651 82.3429C250.135 81.8063 250.745 81.3617 251.48 81.0093C252.225 80.6414 253.018 80.3801 253.857 80.2254C255.378 79.945 256.619 80.0959 257.581 80.6779C258.552 81.2444 259.178 82.2883 259.458 83.8094L260.592 89.9659L258.271 90.3937ZM254.992 91.1405C254.205 91.2855 253.493 91.2813 252.854 91.1278C252.214 90.9612 251.686 90.6721 251.271 90.2604C250.867 89.8332 250.61 89.3181 250.499 88.7149C250.39 88.1248 250.43 87.5683 250.618 87.0455C250.82 86.5202 251.217 86.0607 251.808 85.6669C252.4 85.2731 253.227 84.9783 254.289 84.7825L257.338 84.2206L257.638 85.8532L254.767 86.3825C253.928 86.5372 253.389 86.7788 253.151 87.1073C252.911 87.4228 252.827 87.7772 252.9 88.1706C252.982 88.6164 253.224 88.9378 253.626 89.1348C254.029 89.3318 254.544 89.3723 255.174 89.2563C255.777 89.1451 256.289 88.9084 256.711 88.546C257.145 88.1812 257.418 87.7106 257.529 87.1343L258.213 88.5334C258.091 89.1932 257.753 89.7504 257.199 90.2049C256.659 90.657 255.923 90.9689 254.992 91.1405ZM266.856 88.9942C267.827 88.8154 268.66 88.5194 269.357 88.1062C270.067 87.6907 270.593 87.2004 270.937 86.6355C271.278 86.0574 271.389 85.4471 271.271 84.8046C271.123 84.0047 270.673 83.4369 269.92 83.1012C269.164 82.7524 268.203 82.6856 267.036 82.9007L267.055 83.4463C267.737 83.3206 268.32 83.0979 268.803 82.7783C269.3 82.4563 269.663 82.0708 269.892 81.6218C270.132 81.1573 270.206 80.6759 270.114 80.1776C270.003 79.5744 269.69 79.0898 269.175 78.7237C268.66 78.3576 268.008 78.1255 267.217 78.0272C266.426 77.9289 265.555 77.9877 264.606 78.2035C263.979 78.3326 263.359 78.5416 262.748 78.8305C262.148 79.1039 261.541 79.453 260.928 79.8779L261.89 81.5714C262.421 81.216 262.95 80.9219 263.477 80.6892C264.017 80.4542 264.549 80.2883 265.073 80.1916C265.571 80.0998 266.007 80.0737 266.381 80.1133C266.752 80.1399 267.047 80.2346 267.267 80.3974C267.497 80.5447 267.635 80.743 267.681 80.9921C267.727 81.2413 267.688 81.4721 267.565 81.6847C267.441 81.8973 267.237 82.0773 266.952 82.2247C266.681 82.3696 266.335 82.4808 265.916 82.5581L264.086 82.8953L264.39 84.5476L266.416 84.1741C267.085 84.0509 267.617 84.0681 268.012 84.2257C268.418 84.3679 268.659 84.6487 268.737 85.0683C268.79 85.3568 268.725 85.6331 268.543 85.8971C268.375 86.1587 268.104 86.3847 267.733 86.5753C267.359 86.7527 266.896 86.8921 266.346 86.9937C265.703 87.1121 265.046 87.1518 264.375 87.1129C263.703 87.074 263.085 86.9574 262.521 86.7632L262.169 88.7194C262.864 88.9574 263.616 89.1035 264.426 89.1576C265.246 89.1961 266.056 89.1417 266.856 88.9942ZM285.654 85.4886C284.802 85.6457 283.986 85.5928 283.205 85.3299C282.438 85.0646 281.772 84.5773 281.207 83.8678C280.654 83.1429 280.265 82.1706 280.04 80.9511C279.813 79.7185 279.824 78.6725 280.072 77.8132C280.334 76.9515 280.777 76.2665 281.402 75.7581C282.025 75.2366 282.782 74.8937 283.674 74.7293C284.71 74.5384 285.662 74.5933 286.531 74.8942C287.413 75.1926 288.157 75.6994 288.763 76.4147C289.382 77.1276 289.792 78.0282 289.992 79.1166C290.193 80.205 290.132 81.1992 289.809 82.0992C289.498 82.9837 288.983 83.7226 288.265 84.3159C287.56 84.9067 286.69 85.2976 285.654 85.4886ZM280.509 90.2399L277.873 75.9205L280.214 75.4891L280.67 77.9674L281.106 80.775L281.817 83.5318L282.968 89.7867L280.509 90.2399ZM284.991 83.4347C285.582 83.3259 286.082 83.0981 286.493 82.7513C286.916 82.402 287.22 81.9528 287.404 81.4038C287.587 80.8547 287.618 80.2458 287.494 79.577C287.369 78.8952 287.124 78.337 286.759 77.9026C286.392 77.4551 285.948 77.1437 285.428 76.9684C284.921 76.7907 284.372 76.7563 283.782 76.8651C283.192 76.9738 282.685 77.2028 282.261 77.5521C281.838 77.9014 281.534 78.3506 281.35 78.8996C281.164 79.4355 281.134 80.0445 281.259 80.7263C281.383 81.3951 281.628 81.9532 281.995 82.4008C282.362 82.8483 282.806 83.1597 283.326 83.335C283.846 83.5102 284.401 83.5434 284.991 83.4347ZM298.329 83.1523C297.162 83.3674 296.097 83.3264 295.134 83.0294C294.181 82.7169 293.388 82.1988 292.753 81.4752C292.131 80.7492 291.725 79.8683 291.535 78.8323C291.341 77.7833 291.401 76.8165 291.712 75.9321C292.035 75.032 292.56 74.2776 293.289 73.6688C294.03 73.0576 294.926 72.6553 295.975 72.4619C296.997 72.2734 297.95 72.3283 298.832 72.6268C299.714 72.9252 300.459 73.4386 301.067 74.167C301.676 74.8954 302.082 75.8103 302.284 76.9118C302.304 77.0167 302.319 77.136 302.33 77.2695C302.354 77.4006 302.37 77.5264 302.379 77.6469L293.627 79.2602L293.326 77.6276L300.78 76.2536L299.911 76.9426C299.813 76.337 299.591 75.8289 299.244 75.4183C298.897 75.0077 298.47 74.7135 297.963 74.5359C297.469 74.3558 296.927 74.3201 296.337 74.4289C295.733 74.5401 295.227 74.7691 294.816 75.1159C294.418 75.4604 294.132 75.8928 293.957 76.4132C293.792 76.9181 293.768 77.4852 293.883 78.1147L293.956 78.5081C294.072 79.1375 294.318 79.6682 294.696 80.1002C295.074 80.5322 295.549 80.831 296.122 80.9966C296.695 81.1622 297.322 81.1821 298.004 81.0564C298.594 80.9477 299.108 80.758 299.547 80.4874C299.985 80.2168 300.351 79.851 300.646 79.3899L302.243 80.6615C301.872 81.2993 301.354 81.8355 300.688 82.27C300.033 82.689 299.247 82.9831 298.329 83.1523ZM313.463 80.2204L308.74 75.8847L310.518 74.2757L316.354 79.6874L313.463 80.2204ZM305.929 81.6089L303.996 71.1054L306.454 70.6522L308.388 81.1557L305.929 81.6089ZM306.885 77.0806L306.509 75.035L310.069 74.3788L310.445 76.4244L306.885 77.0806ZM310.996 75.5501L308.644 75.6989L311.529 69.7168L314.165 69.231L310.996 75.5501ZM316.55 79.6309L316.288 77.5438C316.382 77.54 316.47 77.5374 316.551 77.536C316.632 77.5347 316.705 77.5279 316.771 77.5158C317.177 77.4409 317.469 77.2583 317.646 76.9681C317.823 76.6779 317.926 76.3133 317.953 75.8743C317.992 75.4198 317.982 74.9267 317.925 74.3949C317.878 73.8476 317.819 73.3027 317.746 72.7603L317.177 68.6757L325.674 67.1095L327.607 77.613L325.149 78.0662L323.476 68.9789L324.17 69.5425L319.174 70.4634L319.578 69.6771L319.951 72.4759C320.083 73.4141 320.164 74.2941 320.193 75.1157C320.233 75.9219 320.189 76.6417 320.062 77.2753C319.947 77.9065 319.717 78.4234 319.371 78.8262C319.038 79.2265 318.563 79.4835 317.947 79.5971C317.75 79.6334 317.53 79.6536 317.287 79.6577C317.057 79.6595 316.811 79.6505 316.55 79.6309ZM337.291 75.8281L336.9 73.7037L336.679 73.2767L335.995 69.5592C335.862 68.838 335.543 68.3205 335.038 68.0069C334.531 67.6802 333.837 67.5978 332.959 67.7597C332.369 67.8685 331.802 68.0678 331.259 68.3578C330.729 68.6453 330.298 68.9892 329.965 69.3895L328.671 67.7772C329.155 67.2406 329.765 66.7961 330.5 66.4436C331.246 66.0757 332.038 65.8144 332.877 65.6597C334.398 65.3793 335.64 65.5302 336.601 66.1122C337.573 66.6788 338.199 67.7226 338.479 69.2437L339.612 75.4002L337.291 75.8281ZM334.012 76.5748C333.225 76.7198 332.513 76.7156 331.875 76.5621C331.234 76.3955 330.706 76.1064 330.291 75.6947C329.887 75.2676 329.63 74.7524 329.519 74.1492C329.41 73.5591 329.45 73.0026 329.639 72.4798C329.84 71.9546 330.237 71.495 330.829 71.1012C331.421 70.7074 332.247 70.4126 333.31 70.2169L336.358 69.6549L336.659 71.2875L333.787 71.8168C332.948 71.9715 332.409 72.2131 332.172 72.5417C331.931 72.8571 331.848 73.2115 331.92 73.6049C332.002 74.0507 332.244 74.3722 332.647 74.5692C333.049 74.7662 333.565 74.8066 334.194 74.6906C334.797 74.5794 335.31 74.3427 335.731 73.9803C336.165 73.6155 336.438 73.1449 336.549 72.5686L337.233 73.9677C337.111 74.6275 336.773 75.1847 336.219 75.6392C335.679 76.0914 334.943 76.4032 334.012 76.5748ZM342.654 74.8395L340.721 64.3359L343.298 63.861L348.899 70.5363L347.876 70.7248L350.949 62.4507L353.25 62.0265L355.203 72.5264L352.981 72.9361L351.532 65.0683L351.973 65.2515L349.237 72.4872L348.175 72.6829L342.991 66.724L343.441 66.519L344.897 74.4261L342.654 74.8395ZM369.102 69.9644L367.169 59.4609L369.627 59.0077L371.561 69.5112L369.102 69.9644ZM362.318 63.9342C363.669 63.6853 364.747 63.7983 365.553 64.2734C366.372 64.7461 366.883 65.5332 367.086 66.6347C367.296 67.7755 367.067 68.7397 366.398 69.5273C365.741 70.2993 364.696 70.8105 363.264 71.0608L358.501 71.9185L356.567 61.415L359.026 60.9618L359.66 64.404L362.318 63.9342ZM362.715 69.2911C363.438 69.1713 363.961 68.919 364.284 68.5342C364.606 68.1494 364.712 67.6554 364.601 67.0522C364.49 66.449 364.22 66.0513 363.791 65.8591C363.373 65.6514 362.796 65.6087 362.059 65.7309L359.971 66.0956L360.626 69.6557L362.715 69.2911ZM61.5054 152.227C60.4302 152.425 59.4307 152.372 58.5071 152.068C57.581 151.75 56.8005 151.23 56.1657 150.506C55.5309 149.783 55.1181 148.903 54.9274 147.867C54.7343 146.818 54.8067 145.849 55.1446 144.959C55.4801 144.057 56.0252 143.299 56.7799 142.685C57.5347 142.072 58.4496 141.666 59.5248 141.467C60.6132 141.267 61.6192 141.319 62.5429 141.623C63.4797 141.925 64.2577 142.432 64.877 143.145C65.5094 143.856 65.9234 144.742 66.1189 145.804C66.3096 146.84 66.2372 147.809 65.9017 148.712C65.5793 149.612 65.0354 150.376 64.27 151.005C63.5153 151.619 62.5937 152.026 61.5054 152.227ZM61.118 150.122C61.7212 150.011 62.2346 149.781 62.6584 149.431C63.0822 149.082 63.3793 148.634 63.5498 148.088C63.7335 147.538 63.7637 146.93 63.6406 146.261C63.5151 145.579 63.27 145.021 62.9053 144.586C62.5514 144.136 62.1142 143.824 61.5939 143.649C61.0736 143.473 60.5184 143.44 59.9283 143.549C59.3251 143.66 58.8117 143.89 58.3879 144.239C57.9772 144.586 57.6801 145.034 57.4965 145.583C57.3104 146.119 57.2801 146.728 57.4057 147.41C57.5288 148.079 57.7739 148.637 58.141 149.085C58.508 149.532 58.9452 149.845 59.4524 150.022C59.9727 150.198 60.5279 150.231 61.118 150.122ZM77.1334 149.204L75.4751 140.195L76.1541 140.68L71.886 141.467L71.5022 139.382L81.3365 137.569L81.7203 139.654L77.4719 140.437L77.9337 139.742L79.592 148.75L77.1334 149.204ZM86.7445 151.52C86.2331 151.614 85.706 151.623 85.1633 151.547C84.6205 151.471 84.1509 151.313 83.7544 151.074L84.4048 149.084C84.6949 149.261 85.0094 149.386 85.3483 149.459C85.6871 149.532 86.0204 149.538 86.3483 149.478C86.7941 149.396 87.1341 149.218 87.3685 148.944C87.6028 148.67 87.7897 148.249 87.9292 147.681L88.2854 146.192L88.4278 145.861L90.6919 135.845L93.0521 135.409L90.2241 147.665C90.0412 148.512 89.7887 149.203 89.4667 149.737C89.1578 150.268 88.7711 150.672 88.3066 150.947C87.8553 151.22 87.3345 151.411 86.7445 151.52ZM88.2491 147.541L81.5066 137.538L84.0635 137.066L89.5878 145.423L88.2491 147.541ZM102.541 144.663C101.688 144.82 100.872 144.767 100.091 144.504C99.3239 144.239 98.658 143.751 98.0936 143.042C97.5399 142.317 97.1508 141.345 96.9263 140.125C96.6994 138.893 96.7102 137.847 96.9587 136.987C97.2204 136.126 97.6637 135.441 98.2887 134.932C98.9112 134.411 99.6683 134.068 100.56 133.904C101.596 133.713 102.548 133.768 103.417 134.068C104.299 134.367 105.043 134.874 105.649 135.589C106.268 136.302 106.678 137.202 106.879 138.291C107.079 139.379 107.018 140.373 106.696 141.273C106.384 142.158 105.869 142.897 105.151 143.49C104.447 144.081 103.576 144.472 102.541 144.663ZM97.3957 149.414L94.7598 135.095L97.1003 134.663L97.5565 137.142L97.992 139.949L98.7029 142.706L99.8543 148.961L97.3957 149.414ZM101.878 142.609C102.468 142.5 102.968 142.272 103.379 141.925C103.803 141.576 104.106 141.127 104.29 140.578C104.474 140.029 104.504 139.42 104.381 138.751C104.255 138.069 104.01 137.511 103.645 137.077C103.278 136.629 102.835 136.318 102.314 136.143C101.807 135.965 101.258 135.931 100.668 136.039C100.078 136.148 99.5714 136.377 99.1476 136.726C98.7239 137.076 98.4202 137.525 98.2365 138.074C98.0505 138.61 98.0202 139.219 98.1457 139.901C98.2689 140.569 98.5139 141.127 98.881 141.575C99.2481 142.023 99.6918 142.334 100.212 142.509C100.732 142.684 101.288 142.718 101.878 142.609ZM115.215 142.326C114.048 142.542 112.983 142.501 112.02 142.204C111.068 141.891 110.274 141.373 109.639 140.649C109.018 139.923 108.611 139.042 108.421 138.007C108.228 136.958 108.287 135.991 108.599 135.106C108.921 134.206 109.446 133.452 110.175 132.843C110.917 132.232 111.812 131.829 112.861 131.636C113.884 131.448 114.836 131.503 115.718 131.801C116.6 132.099 117.345 132.613 117.954 133.341C118.562 134.07 118.968 134.985 119.171 136.086C119.19 136.191 119.205 136.31 119.216 136.444C119.24 136.575 119.257 136.701 119.265 136.821L110.513 138.434L110.212 136.802L117.667 135.428L116.797 136.117C116.699 135.511 116.477 135.003 116.13 134.592C115.783 134.182 115.356 133.888 114.849 133.71C114.355 133.53 113.813 133.494 113.223 133.603C112.62 133.714 112.113 133.943 111.702 134.29C111.305 134.635 111.018 135.067 110.843 135.587C110.678 136.092 110.654 136.659 110.77 137.289L110.842 137.682C110.958 138.312 111.205 138.842 111.583 139.274C111.96 139.706 112.436 140.005 113.008 140.171C113.581 140.336 114.208 140.356 114.89 140.231C115.48 140.122 115.995 139.932 116.433 139.662C116.871 139.391 117.238 139.025 117.532 138.564L119.129 139.836C118.758 140.474 118.24 141.01 117.574 141.444C116.919 141.863 116.133 142.157 115.215 142.326ZM128.251 139.781L126.318 129.278L136.388 127.421L138.322 137.925L135.883 138.374L134.228 129.385L134.904 129.851L128.59 131.015L129.055 130.339L130.71 139.328L128.251 139.781ZM146.346 136.588C145.27 136.786 144.271 136.733 143.347 136.429C142.421 136.112 141.641 135.591 141.006 134.868C140.371 134.144 139.958 133.264 139.768 132.228C139.575 131.179 139.647 130.21 139.985 129.321C140.32 128.418 140.866 127.66 141.62 127.047C142.375 126.433 143.29 126.027 144.365 125.829C145.453 125.628 146.459 125.68 147.383 125.984C148.32 126.286 149.098 126.794 149.717 127.507C150.35 128.217 150.764 129.103 150.959 130.166C151.15 131.201 151.077 132.171 150.742 133.073C150.42 133.973 149.876 134.738 149.11 135.367C148.356 135.981 147.434 136.388 146.346 136.588ZM145.958 134.484C146.561 134.372 147.075 134.142 147.499 133.793C147.922 133.444 148.22 132.996 148.39 132.449C148.574 131.9 148.604 131.291 148.481 130.622C148.355 129.94 148.11 129.382 147.746 128.948C147.392 128.498 146.954 128.185 146.434 128.01C145.914 127.835 145.359 127.802 144.769 127.91C144.165 128.022 143.652 128.252 143.228 128.601C142.818 128.948 142.52 129.396 142.337 129.945C142.151 130.481 142.12 131.09 142.246 131.772C142.369 132.44 142.614 132.999 142.981 133.446C143.348 133.894 143.785 134.206 144.293 134.384C144.813 134.559 145.368 134.592 145.958 134.484ZM152.702 135.254L152.439 133.167C152.534 133.163 152.621 133.161 152.702 133.159C152.783 133.158 152.857 133.151 152.922 133.139C153.329 133.064 153.621 132.881 153.798 132.591C153.975 132.301 154.077 131.936 154.105 131.497C154.143 131.043 154.134 130.55 154.076 130.018C154.03 129.471 153.97 128.926 153.898 128.383L153.329 124.299L161.826 122.733L163.759 133.236L161.3 133.689L159.628 124.602L160.321 125.166L155.325 126.086L155.73 125.3L156.103 128.099C156.235 129.037 156.315 129.917 156.344 130.739C156.384 131.545 156.341 132.265 156.213 132.898C156.099 133.53 155.869 134.047 155.523 134.449C155.19 134.85 154.715 135.107 154.099 135.22C153.902 135.256 153.682 135.277 153.439 135.281C153.209 135.283 152.963 135.274 152.702 135.254ZM171.045 124.612C172.396 124.364 173.481 124.475 174.3 124.948C175.119 125.421 175.63 126.208 175.832 127.309C176.042 128.45 175.813 129.414 175.145 130.202C174.474 130.976 173.423 131.489 171.991 131.739L167.07 132.626L165.137 122.122L167.595 121.669L168.229 125.111L171.045 124.612ZM171.441 129.969C172.165 129.85 172.688 129.597 173.01 129.212C173.333 128.828 173.438 128.334 173.327 127.73C173.216 127.127 172.946 126.73 172.518 126.537C172.1 126.33 171.523 126.287 170.786 126.409L168.54 126.803L169.196 130.363L171.441 129.969ZM181.798 130.094C182.768 129.915 183.602 129.619 184.298 129.206C185.008 128.791 185.535 128.3 185.878 127.735C186.219 127.157 186.33 126.547 186.212 125.904C186.065 125.105 185.615 124.537 184.861 124.201C184.106 123.852 183.144 123.785 181.977 124.001L181.997 124.546C182.678 124.42 183.261 124.198 183.745 123.878C184.241 123.556 184.604 123.171 184.833 122.722C185.073 122.257 185.147 121.776 185.055 121.278C184.944 120.674 184.631 120.19 184.117 119.824C183.602 119.458 182.949 119.225 182.158 119.127C181.367 119.029 180.497 119.088 179.547 119.303C178.92 119.432 178.301 119.641 177.69 119.93C177.089 120.204 176.483 120.553 175.869 120.978L176.832 122.671C177.363 122.316 177.892 122.022 178.418 121.789C178.958 121.554 179.49 121.388 180.015 121.291C180.513 121.2 180.949 121.174 181.322 121.213C181.693 121.24 181.988 121.334 182.208 121.497C182.439 121.645 182.577 121.843 182.623 122.092C182.668 122.341 182.63 122.572 182.506 122.785C182.383 122.997 182.178 123.177 181.894 123.325C181.622 123.47 181.277 123.581 180.857 123.658L179.028 123.995L179.332 125.647L181.358 125.274C182.027 125.151 182.558 125.168 182.953 125.326C183.359 125.468 183.601 125.749 183.678 126.168C183.731 126.457 183.667 126.733 183.485 126.997C183.316 127.259 183.046 127.485 182.674 127.675C182.3 127.853 181.838 127.992 181.287 128.094C180.645 128.212 179.988 128.252 179.316 128.213C178.645 128.174 178.027 128.057 177.462 127.863L177.11 129.819C177.805 130.057 178.557 130.203 179.367 130.257C180.188 130.296 180.998 130.242 181.798 130.094ZM194.019 127.801C192.944 127.999 191.944 127.946 191.021 127.642C190.095 127.324 189.314 126.804 188.679 126.08C188.045 125.357 187.632 124.477 187.441 123.441C187.248 122.392 187.32 121.423 187.658 120.533C187.994 119.631 188.539 118.873 189.294 118.259C190.048 117.646 190.963 117.24 192.039 117.041C193.127 116.841 194.133 116.893 195.057 117.197C195.993 117.499 196.771 118.006 197.391 118.719C198.023 119.43 198.437 120.316 198.633 121.378C198.823 122.414 198.751 123.383 198.415 124.286C198.093 125.186 197.549 125.95 196.784 126.579C196.029 127.193 195.107 127.6 194.019 127.801ZM193.632 125.696C194.235 125.585 194.748 125.355 195.172 125.005C195.596 124.656 195.893 124.208 196.064 123.661C196.247 123.112 196.277 122.504 196.154 121.835C196.029 121.153 195.784 120.595 195.419 120.16C195.065 119.71 194.628 119.398 194.108 119.223C193.587 119.047 193.032 119.014 192.442 119.123C191.839 119.234 191.325 119.464 190.902 119.813C190.491 120.16 190.194 120.608 190.01 121.157C189.824 121.693 189.794 122.302 189.919 122.984C190.042 123.653 190.288 124.211 190.655 124.659C191.022 125.106 191.459 125.419 191.966 125.596C192.486 125.772 193.042 125.805 193.632 125.696ZM202.028 126.182L200.095 115.679L205.228 114.732C206.5 114.498 207.54 114.55 208.348 114.889C209.169 115.226 209.66 115.827 209.819 116.693C209.976 117.545 209.758 118.277 209.165 118.887C208.57 119.485 207.709 119.888 206.581 120.096L206.764 119.432C208.036 119.197 209.024 119.259 209.727 119.618C210.441 119.961 210.88 120.578 211.044 121.47C211.215 122.401 211.002 123.192 210.403 123.845C209.803 124.485 208.794 124.935 207.378 125.196L202.028 126.182ZM204.039 123.961L206.852 123.442C207.521 123.319 208.006 123.121 208.308 122.848C208.608 122.563 208.717 122.197 208.635 121.751C208.548 121.279 208.327 120.96 207.971 120.795C207.615 120.631 207.103 120.61 206.434 120.733L203.543 121.266L204.039 123.961ZM203.243 119.633L205.819 119.158C206.449 119.042 206.9 118.844 207.174 118.563C207.458 118.267 207.562 117.909 207.484 117.489C207.405 117.056 207.182 116.765 206.815 116.616C206.462 116.464 205.971 116.446 205.341 116.562L202.765 117.037L203.243 119.633ZM220.578 122.763L220.187 120.638L219.966 120.211L219.282 116.494C219.149 115.773 218.83 115.255 218.325 114.942C217.818 114.615 217.125 114.532 216.246 114.694C215.656 114.803 215.089 115.002 214.546 115.292C214.016 115.58 213.585 115.924 213.252 116.324L211.958 114.712C212.443 114.175 213.052 113.731 213.787 113.378C214.533 113.01 215.325 112.749 216.165 112.594C217.686 112.314 218.927 112.465 219.888 113.047C220.86 113.613 221.486 114.657 221.766 116.178L222.899 122.335L220.578 122.763ZM217.299 123.509C216.513 123.654 215.8 123.65 215.162 123.497C214.521 123.33 213.993 123.041 213.579 122.629C213.175 122.202 212.917 121.687 212.806 121.084C212.697 120.494 212.737 119.937 212.926 119.414C213.127 118.889 213.524 118.43 214.116 118.036C214.708 117.642 215.535 117.347 216.597 117.151L219.645 116.59L219.946 118.222L217.074 118.751C216.235 118.906 215.697 119.148 215.459 119.476C215.219 119.792 215.135 120.146 215.207 120.54C215.289 120.985 215.531 121.307 215.934 121.504C216.336 121.701 216.852 121.741 217.481 121.625C218.084 121.514 218.597 121.277 219.018 120.915C219.453 120.55 219.725 120.08 219.836 119.503L220.521 120.902C220.398 121.562 220.06 122.119 219.507 122.574C218.966 123.026 218.23 123.338 217.299 123.509ZM228.125 121.372L226.467 112.363L227.146 112.848L222.877 113.635L222.494 111.55L232.328 109.737L232.712 111.822L228.463 112.605L228.925 111.91L230.583 120.918L228.125 121.372ZM240.507 119.232C239.34 119.447 238.275 119.406 237.312 119.109C236.359 118.796 235.566 118.278 234.931 117.555C234.309 116.829 233.903 115.948 233.712 114.912C233.519 113.863 233.579 112.896 233.89 112.011C234.213 111.111 234.738 110.357 235.467 109.748C236.208 109.137 237.103 108.735 238.152 108.541C239.175 108.353 240.128 108.408 241.01 108.706C241.891 109.005 242.637 109.518 243.245 110.246C243.854 110.975 244.26 111.89 244.462 112.991C244.482 113.096 244.497 113.215 244.508 113.349C244.532 113.48 244.548 113.606 244.557 113.726L235.804 115.34L235.504 113.707L242.958 112.333L242.089 113.022C241.991 112.416 241.768 111.908 241.422 111.498C241.075 111.087 240.648 110.793 240.141 110.615C239.647 110.435 239.105 110.4 238.515 110.508C237.911 110.619 237.404 110.849 236.994 111.195C236.596 111.54 236.31 111.972 236.134 112.493C235.97 112.998 235.945 113.565 236.061 114.194L236.134 114.587C236.25 115.217 236.496 115.748 236.874 116.18C237.252 116.612 237.727 116.91 238.3 117.076C238.873 117.242 239.5 117.262 240.182 117.136C240.772 117.027 241.286 116.837 241.724 116.567C242.163 116.296 242.529 115.93 242.824 115.469L244.42 116.741C244.05 117.379 243.532 117.915 242.866 118.349C242.211 118.768 241.425 119.063 240.507 119.232ZM246.435 117.976L246.173 115.889C246.267 115.885 246.355 115.883 246.436 115.881C246.517 115.88 246.59 115.873 246.656 115.861C247.062 115.786 247.354 115.604 247.531 115.313C247.708 115.023 247.811 114.659 247.838 114.22C247.877 113.765 247.867 113.272 247.81 112.74C247.763 112.193 247.704 111.648 247.631 111.106L247.062 107.021L255.559 105.455L257.492 115.958L255.034 116.412L253.361 107.324L254.055 107.888L249.059 108.809L249.463 108.022L249.836 110.821C249.968 111.759 250.049 112.639 250.078 113.461C250.118 114.267 250.074 114.987 249.947 115.621C249.832 116.252 249.602 116.769 249.256 117.172C248.923 117.572 248.448 117.829 247.832 117.942C247.635 117.979 247.415 117.999 247.172 118.003C246.942 118.005 246.696 117.996 246.435 117.976ZM267.471 114.119L266.812 110.539L267.242 110.887L264.095 111.467C262.653 111.733 261.463 111.64 260.526 111.189C259.6 110.723 259.03 109.913 258.818 108.759C258.591 107.526 258.851 106.509 259.598 105.707C260.358 104.902 261.466 104.366 262.922 104.098L267.741 103.209L269.674 113.713L267.471 114.119ZM259.918 115.511L262.012 110.977L264.53 110.512L262.554 115.025L259.918 115.511ZM266.667 109.752L265.798 105.032L266.272 105.616L263.381 106.148C262.62 106.289 262.057 106.542 261.69 106.908C261.334 107.258 261.214 107.748 261.33 108.377C261.547 109.557 262.423 110.006 263.957 109.723L266.927 109.176L266.667 109.752ZM272.981 113.103L271.048 102.6L273.624 102.125L279.225 108.8L278.203 108.989L281.275 100.715L283.577 100.29L285.53 110.79L283.307 111.2L281.859 103.332L282.299 103.515L279.564 110.751L278.502 110.947L273.318 104.988L273.768 104.783L275.223 112.69L272.981 113.103ZM288.686 113.279L289.026 108.722L289.629 110.116C289.17 110.201 288.758 110.134 288.392 109.917C288.038 109.684 287.816 109.325 287.726 108.84C287.635 108.342 287.713 107.92 287.961 107.576C288.221 107.217 288.573 106.996 289.019 106.914C289.478 106.829 289.886 106.91 290.243 107.156C290.6 107.402 290.823 107.767 290.913 108.253C290.937 108.384 290.95 108.53 290.953 108.692C290.953 108.842 290.939 109.02 290.909 109.229C290.893 109.436 290.847 109.702 290.772 110.027L290.279 112.986L288.686 113.279ZM61.3249 177.539L59.3914 167.035L69.4618 165.179L71.3952 175.683L68.9563 176.132L67.3016 167.143L67.977 167.608L61.6634 168.772L62.1288 168.097L63.7835 177.086L61.3249 177.539ZM79.4191 174.346C78.3439 174.544 77.3445 174.491 76.4208 174.187C75.4947 173.869 74.7142 173.349 74.0794 172.625C73.4446 171.902 73.0318 171.022 72.8411 169.986C72.648 168.937 72.7204 167.968 73.0583 167.079C73.3938 166.176 73.939 165.418 74.6937 164.804C75.4484 164.191 76.3633 163.785 77.4386 163.587C78.5269 163.386 79.5329 163.438 80.4566 163.742C81.3934 164.044 82.1714 164.551 82.7907 165.264C83.4231 165.975 83.8371 166.861 84.0326 167.923C84.2233 168.959 84.1509 169.928 83.8154 170.831C83.493 171.731 82.9491 172.495 82.1837 173.124C81.429 173.738 80.5075 174.145 79.4191 174.346ZM79.0317 172.241C79.6349 172.13 80.1483 171.9 80.5721 171.551C80.9959 171.201 81.293 170.753 81.4636 170.207C81.6472 169.658 81.6775 169.049 81.5543 168.38C81.4288 167.698 81.1837 167.14 80.8191 166.706C80.4651 166.256 80.0279 165.943 79.5076 165.768C78.9873 165.592 78.4321 165.559 77.842 165.668C77.2389 165.779 76.7254 166.009 76.3016 166.359C75.891 166.706 75.5938 167.153 75.4102 167.703C75.2241 168.238 75.1939 168.847 75.3194 169.529C75.4425 170.198 75.6876 170.756 76.0547 171.204C76.4218 171.651 76.8589 171.964 77.3661 172.141C77.8865 172.317 78.4416 172.35 79.0317 172.241ZM92.2329 171.984C91.1315 172.187 90.1058 172.139 89.1559 171.839C88.2167 171.524 87.4297 171.005 86.7949 170.281C86.1601 169.558 85.7473 168.678 85.5566 167.642C85.3635 166.593 85.4359 165.624 85.7738 164.735C86.1093 163.832 86.661 163.073 87.4288 162.457C88.2097 161.838 89.1509 161.428 90.2524 161.225C91.2752 161.036 92.212 161.08 93.0629 161.357C93.9244 161.619 94.6321 162.112 95.1858 162.837L93.5004 164.287C93.094 163.846 92.6396 163.55 92.1372 163.399C91.6479 163.245 91.141 163.217 90.6165 163.313C90.0133 163.424 89.4933 163.656 89.0564 164.008C88.6195 164.359 88.3093 164.81 88.1257 165.359C87.9396 165.895 87.9093 166.504 88.0349 167.185C88.1604 167.867 88.4067 168.432 88.7738 168.88C89.1384 169.314 89.5875 169.618 90.1209 169.79C90.6544 169.963 91.2227 169.994 91.8259 169.883C92.3504 169.786 92.8138 169.579 93.2162 169.261C93.6316 168.94 93.9509 168.501 94.1738 167.945L96.2648 168.699C96.0031 169.56 95.5188 170.28 94.8117 170.858C94.1153 171.42 93.2557 171.795 92.2329 171.984ZM103.626 169.884C102.459 170.099 101.394 170.058 100.431 169.761C99.4785 169.448 98.6849 168.93 98.0501 168.207C97.4284 167.481 97.0222 166.6 96.8315 165.564C96.6384 164.515 96.6977 163.548 97.0094 162.664C97.3318 161.764 97.8572 161.009 98.5857 160.4C99.3273 159.789 100.223 159.387 101.272 159.194C102.294 159.005 103.247 159.06 104.129 159.358C105.011 159.657 105.756 160.17 106.364 160.899C106.973 161.627 107.379 162.542 107.581 163.643C107.601 163.748 107.616 163.868 107.627 164.001C107.651 164.132 107.667 164.258 107.676 164.378L98.9235 165.992L98.623 164.359L106.077 162.985L105.208 163.674C105.11 163.069 104.888 162.56 104.541 162.15C104.194 161.739 103.767 161.445 103.26 161.267C102.766 161.087 102.224 161.052 101.634 161.16C101.03 161.272 100.524 161.501 100.113 161.848C99.7154 162.192 99.4289 162.624 99.2536 163.145C99.0889 163.65 99.0645 164.217 99.1804 164.846L99.2528 165.24C99.3687 165.869 99.6155 166.4 99.9933 166.832C100.371 167.264 100.846 167.563 101.419 167.728C101.992 167.894 102.619 167.914 103.301 167.788C103.891 167.679 104.405 167.49 104.844 167.219C105.282 166.948 105.648 166.583 105.943 166.121L107.54 167.393C107.169 168.031 106.651 168.567 105.985 169.002C105.33 169.421 104.544 169.715 103.626 169.884ZM113.006 168.012L111.348 159.004L112.027 159.489L107.759 160.275L107.375 158.191L117.209 156.378L117.593 158.463L113.345 159.246L113.807 158.551L115.465 167.559L113.006 168.012ZM120.926 166.553L118.993 156.049L121.451 155.596L122.726 162.52L127.254 154.526L129.496 154.113L131.429 164.617L128.971 165.07L127.696 158.146L123.188 166.136L120.926 166.553ZM134.737 164.007L132.803 153.503L137.937 152.557C139.209 152.323 140.249 152.375 141.057 152.714C141.878 153.051 142.368 153.652 142.527 154.517C142.684 155.37 142.466 156.101 141.874 156.712C141.279 157.31 140.418 157.713 139.29 157.921L139.473 157.257C140.745 157.022 141.732 157.084 142.435 157.443C143.149 157.786 143.588 158.403 143.752 159.295C143.924 160.226 143.71 161.017 143.112 161.67C142.511 162.309 141.503 162.76 140.086 163.021L134.737 164.007ZM136.748 161.786L139.56 161.267C140.229 161.144 140.715 160.946 141.017 160.673C141.317 160.387 141.426 160.022 141.344 159.576C141.257 159.104 141.035 158.785 140.68 158.62C140.324 158.455 139.812 158.435 139.143 158.558L136.252 159.091L136.748 161.786ZM135.951 157.458L138.528 156.983C139.157 156.867 139.609 156.669 139.882 156.388C140.167 156.091 140.27 155.733 140.193 155.314C140.113 154.881 139.89 154.59 139.524 154.441C139.171 154.289 138.679 154.271 138.05 154.387L135.473 154.862L135.951 157.458ZM153.592 158.376L153.169 159.064L151.511 150.055L153.969 149.602L155.628 158.611L154.929 158.129L160.122 157.172L159.66 157.867L158.001 148.859L160.46 148.405L162.393 158.909L146.914 161.762L144.981 151.259L147.439 150.806L149.098 159.814L148.419 159.329L153.592 158.376ZM165.699 158.3L163.766 147.796L166.224 147.343L167.499 154.267L172.027 146.273L174.269 145.86L176.202 156.364L173.744 156.817L172.469 149.893L167.961 157.883L165.699 158.3ZM179.51 155.754L177.576 145.25L180.153 144.776L185.754 151.451L184.731 151.639L187.804 143.365L190.105 142.941L192.058 153.441L189.836 153.851L188.387 145.983L188.828 146.166L186.093 153.402L185.03 153.597L179.846 147.639L180.296 147.434L181.752 155.341L179.51 155.754ZM205.597 151.088C204.495 151.291 203.469 151.243 202.52 150.943C201.58 150.628 200.793 150.109 200.159 149.385C199.524 148.662 199.111 147.782 198.92 146.746C198.727 145.697 198.8 144.728 199.137 143.839C199.473 142.936 200.025 142.177 200.792 141.561C201.573 140.942 202.515 140.532 203.616 140.329C204.639 140.14 205.576 140.184 206.427 140.461C207.288 140.723 207.996 141.216 208.549 141.941L206.864 143.391C206.458 142.95 206.003 142.654 205.501 142.503C205.012 142.349 204.505 142.32 203.98 142.417C203.377 142.528 202.857 142.76 202.42 143.111C201.983 143.463 201.673 143.914 201.489 144.463C201.303 144.999 201.273 145.607 201.399 146.289C201.524 146.971 201.77 147.536 202.137 147.983C202.502 148.418 202.951 148.721 203.485 148.894C204.018 149.067 204.586 149.098 205.19 148.987C205.714 148.89 206.177 148.683 206.58 148.364C206.995 148.044 207.315 147.605 207.538 147.049L209.628 147.802C209.367 148.664 208.882 149.384 208.175 149.962C207.479 150.524 206.619 150.899 205.597 151.088ZM218.593 148.55L218.202 146.426L217.981 145.998L217.297 142.281C217.164 141.56 216.845 141.042 216.34 140.729C215.832 140.402 215.139 140.32 214.261 140.481C213.671 140.59 213.104 140.79 212.561 141.08C212.031 141.367 211.599 141.711 211.266 142.111L209.973 140.499C210.457 139.962 211.067 139.518 211.802 139.165C212.548 138.797 213.34 138.536 214.179 138.381C215.7 138.101 216.941 138.252 217.903 138.834C218.875 139.401 219.501 140.444 219.781 141.965L220.914 148.122L218.593 148.55ZM215.314 149.297C214.527 149.442 213.815 149.437 213.176 149.284C212.536 149.117 212.008 148.828 211.593 148.417C211.189 147.989 210.932 147.474 210.821 146.871C210.712 146.281 210.752 145.724 210.94 145.202C211.142 144.676 211.539 144.217 212.13 143.823C212.722 143.429 213.549 143.134 214.611 142.939L217.66 142.377L217.961 144.009L215.089 144.539C214.25 144.693 213.711 144.935 213.473 145.263C213.233 145.579 213.149 145.933 213.222 146.327C213.304 146.773 213.546 147.094 213.948 147.291C214.351 147.488 214.866 147.528 215.496 147.412C216.099 147.301 216.611 147.064 217.033 146.702C217.467 146.337 217.74 145.867 217.851 145.29L218.535 146.689C218.413 147.349 218.075 147.906 217.521 148.361C216.981 148.813 216.245 149.125 215.314 149.297ZM223.956 147.561L222.023 137.058L224.481 136.605L225.756 143.528L230.284 135.535L232.526 135.122L234.459 145.625L232.001 146.078L230.726 139.155L226.218 147.144L223.956 147.561ZM226.889 134.88C225.84 135.073 224.989 134.979 224.336 134.598C223.68 134.203 223.259 133.535 223.072 132.594L224.704 132.293C224.804 132.762 225.017 133.109 225.343 133.334C225.683 133.556 226.108 133.62 226.619 133.526C227.118 133.434 227.486 133.224 227.723 132.895C227.974 132.564 228.063 132.162 227.989 131.687L229.661 131.379C229.822 132.326 229.659 133.101 229.174 133.706C228.7 134.295 227.938 134.686 226.889 134.88ZM239.95 144.613L238.291 135.605L238.97 136.089L234.702 136.876L234.319 134.791L244.153 132.978L244.537 135.063L240.288 135.847L240.75 135.151L242.408 144.16L239.95 144.613ZM247.644 143.337C247.198 143.419 246.79 143.339 246.42 143.095C246.047 142.838 245.817 142.474 245.73 142.002C245.639 141.504 245.724 141.081 245.985 140.735C246.244 140.375 246.597 140.154 247.043 140.072C247.488 139.99 247.897 140.071 248.267 140.314C248.635 140.545 248.864 140.909 248.956 141.407C249.043 141.88 248.958 142.302 248.701 142.675C248.442 143.034 248.09 143.255 247.644 143.337Z" fill="white"/>
<defs>
<linearGradient id="paint0_linear_766_8025" x1="207.947" y1="61.1678" x2="276.327" y2="200.03" gradientUnits="userSpaceOnUse">
<stop stop-color="#120E1E"/>
<stop offset="1" stop-color="#120E1E" stop-opacity="0"/>
</linearGradient>
<linearGradient id="paint1_linear_766_8025" x1="105.323" y1="34.8573" x2="360.335" y2="207.498" gradientUnits="userSpaceOnUse">
<stop stop-color="#3BC3E1"/>
<stop offset="1" stop-color="#3BC3E1" stop-opacity="0"/>
</linearGradient>
</defs>
</svg>
