<?xml version="1.0" encoding="utf-8"?>
<!-- Generator: Adobe Illustrator 23.1.0, SVG Export Plug-In . SVG Version: 6.00 Build 0)  -->
<svg version="1.1" id="Слой_1" xmlns="http://www.w3.org/2000/svg" xmlns:xlink="http://www.w3.org/1999/xlink" x="0px" y="0px"
	 viewBox="0 0 500 132.3" style="enable-background:new 0 0 500 132.3;" xml:space="preserve">
<style type="text/css">
	.st0{fill:#FFFFFF;}
</style>
<g>
	<path class="st0" d="M0,51.2l10.6-15.5c2.3,2.9,4.9,5.1,7.5,6.7c2.7,1.6,5.4,2.3,8,2.3c1.2,0,2.1-0.2,2.8-0.6
		c0.7-0.4,1.1-1,1.1-1.7c0-1.1-1.5-2.2-4.6-3.5c-0.7-0.3-1.2-0.5-1.6-0.6c-5.1-2.1-8.8-4.5-11.1-7.3s-3.5-6.1-3.5-10
		c0-6.2,2.3-11.2,6.8-15.1C20.6,1.9,26.5,0,33.8,0c4.2,0,8.1,0.6,11.6,1.9C49,3.1,52.2,5,55.2,7.4L46.9,22c-2.4-2.1-4.6-3.7-6.5-4.7
		c-2-1-3.8-1.5-5.4-1.5c-1,0-1.8,0.2-2.4,0.7c-0.6,0.5-0.9,1.1-0.9,1.9c0,1.3,1.8,2.7,5.3,4.2c0.9,0.4,1.7,0.7,2.2,1
		c4.6,2.1,7.9,4.4,9.8,7c1.9,2.6,2.9,5.8,2.9,9.8c0,6.2-2.4,11.4-7.2,15.5S33.8,62,26.4,62c-4.6,0-9.2-0.9-13.7-2.7
		C8.3,57.4,4,54.8,0,51.2z"/>
	<path class="st0" d="M67,60.6l7.6-41.3H61.9l3.4-18h46.6l-3.3,18H96.3l-7.6,41.3H67z"/>
	<path class="st0" d="M176.2,60.6l10.9-59.2H210c8.6,0,15,1.5,19.5,4.5c4.4,3,6.6,7.4,6.6,13.3c0,4.9-1.3,9-3.8,12.3
		s-6.1,5.4-10.8,6.4l8.5,22.8h-22l-6.4-21.5l-4,21.5H176.2z M203.7,27.6h1.6c3.3,0,5.7-0.5,7.2-1.6c1.5-1.1,2.3-2.7,2.3-5
		c0-1.7-0.6-3-1.8-3.8c-1.2-0.8-3.2-1.2-5.8-1.2h-1.3L203.7,27.6z"/>
	<path class="st0" d="M251.9,60.6l7.6-41.3h-12.7l3.4-18h46.6l-3.3,18h-12.3l-7.6,41.3H251.9z"/>
	<path class="st0" d="M294.9,51.2l10.6-15.5c2.3,2.9,4.9,5.1,7.5,6.7c2.7,1.6,5.4,2.3,8,2.3c1.2,0,2.1-0.2,2.8-0.6
		c0.7-0.4,1.1-1,1.1-1.7c0-1.1-1.5-2.2-4.6-3.5c-0.7-0.3-1.2-0.5-1.6-0.6c-5.1-2.1-8.8-4.5-11.1-7.3s-3.5-6.1-3.5-10
		c0-6.2,2.3-11.2,6.8-15.1c4.5-3.9,10.4-5.8,17.7-5.8c4.2,0,8.1,0.6,11.6,1.9s6.8,3.1,9.8,5.6L341.9,22c-2.4-2.1-4.6-3.7-6.5-4.7
		c-2-1-3.8-1.5-5.4-1.5c-1,0-1.8,0.2-2.4,0.7c-0.6,0.5-0.9,1.1-0.9,1.9c0,1.3,1.8,2.7,5.3,4.2c0.9,0.4,1.7,0.7,2.2,1
		c4.6,2.1,7.9,4.4,9.8,7s2.9,5.8,2.9,9.8c0,6.2-2.4,11.4-7.2,15.5S328.7,62,321.4,62c-4.6,0-9.2-0.9-13.7-2.7
		C303.2,57.4,299,54.8,294.9,51.2z"/>
	<path class="st0" d="M354.5,60.6l11-59.2h21.8l-10.9,59.2H354.5z"/>
	<path class="st0" d="M401.7,60.6l7.6-41.3h-12.7l3.4-18h46.6l-3.3,18h-12.3l-7.6,41.3H401.7z"/>
	<path class="st0" d="M448.4,60.6l10.9-59.2H500l-2.9,16.1h-19.3l-1.1,5.7h18.2l-2.8,15H474l-1.2,6.4h21l-3,16.1H448.4z"/>
</g>
<g>
	<path class="st0" d="M159.3,1.3h-23.4L105,60.6h9.5l3.6-5.2l10.2-7.2l-3.5,12.4h3.2l7.4-27.3l7.1-13.3c2.6-3.2,1.4-3.3,2.6,0.4
		l3,14L146,60.6h3.4l0.8-11.1l7.9,9l0.5,2.1h8.5L159.3,1.3z"/>
	<ellipse transform="matrix(0.7071 -0.7071 0.7071 0.7071 10.1827 111.7962)" class="st0" cx="140" cy="43.6" rx="5.2" ry="5.2"/>
</g>
<g>
	<path class="st0" d="M76,123.3l5.5-29.6h8c2.5,0,4.6,0.1,6.2,0.4c1.7,0.2,3,0.6,4.1,1.1c2.3,1.2,4.1,2.7,5.4,4.8
		c1.2,2,1.9,4.4,1.9,7c0,2.5-0.5,4.8-1.6,7c-1.1,2.2-2.6,4-4.6,5.5c-1.8,1.4-4,2.4-6.4,3c-2.4,0.6-5.5,0.9-9.1,0.9H76z M88.4,114.4
		h0.1c2.4,0,4.3-0.6,5.6-1.8c1.3-1.2,2-2.9,2-5c0-1.6-0.5-2.8-1.4-3.7c-1-0.9-2.3-1.3-3.9-1.3h-0.2L88.4,114.4z"/>
	<path class="st0" d="M109,123.3l3.8-20.9h9.9l-3.9,20.9H109z M118.3,101.3c-1.5,0-2.7-0.5-3.7-1.4c-1-0.9-1.5-2-1.5-3.4
		c0-1.4,0.6-2.7,1.8-3.7c1.2-1.1,2.6-1.6,4.2-1.6c1.5,0,2.7,0.4,3.7,1.3c1,0.9,1.5,2,1.5,3.4c0,1.4-0.6,2.7-1.8,3.7
		C121.4,100.8,120,101.3,118.3,101.3z"/>
	<path class="st0" d="M142.3,102.4h9.6l-3.6,18.9c-0.7,3.6-2.1,6.3-4.4,8.2c-2.3,1.8-5.2,2.8-8.9,2.8c-1.6,0-3.2-0.2-4.8-0.6
		c-1.6-0.4-3.2-1-4.9-1.8l3.3-6c0.9,0.6,1.8,1.1,2.7,1.3s1.8,0.4,2.7,0.4c1.3,0,2.3-0.4,3.2-1.1c0.9-0.7,1.5-1.8,1.9-3.2l0.5-1.8
		c-0.9,1.1-1.9,2-2.9,2.6c-1.1,0.6-2.2,0.9-3.4,0.9c-2.3,0-4.2-0.8-5.7-2.3c-1.4-1.5-2.1-3.6-2.1-6.1c0-1.5,0.3-3,0.8-4.5
		c0.5-1.5,1.2-2.9,2.1-4.1c1-1.4,2.2-2.4,3.5-3.1s2.7-1.1,4.2-1.1c1.3,0,2.5,0.3,3.4,0.9c1,0.6,1.8,1.5,2.5,2.7L142.3,102.4z
		 M138.1,110c-0.8,0-1.5,0.3-2,0.9c-0.5,0.6-0.8,1.4-0.8,2.3c0,0.7,0.2,1.3,0.6,1.7c0.4,0.4,0.9,0.6,1.6,0.6c0.9,0,1.6-0.3,2.1-0.9
		c0.6-0.6,0.8-1.3,0.8-2.3c0-0.7-0.2-1.3-0.6-1.8C139.4,110.2,138.9,110,138.1,110z"/>
	<path class="st0" d="M154.1,123.3l3.8-20.9h9.9l-3.9,20.9H154.1z M163.4,101.3c-1.5,0-2.7-0.5-3.7-1.4c-1-0.9-1.5-2-1.5-3.4
		c0-1.4,0.6-2.7,1.8-3.7c1.2-1.1,2.6-1.6,4.2-1.6c1.5,0,2.7,0.4,3.7,1.3c1,0.9,1.5,2,1.5,3.4c0,1.4-0.6,2.7-1.8,3.7
		C166.5,100.8,165.1,101.3,163.4,101.3z"/>
	<path class="st0" d="M171.1,123.3l2.4-13.4H171l1.4-7.5h2.6l1.1-5.8h9.9l-1.1,5.8h3l-1.4,7.5h-3l-2.5,13.4H171.1z"/>
	<path class="st0" d="M206.1,102.4h9.6l-3.9,20.9h-9.3l0.7-2.8c-0.9,1.2-1.8,2.1-2.9,2.7c-1,0.6-2.2,0.9-3.5,0.9
		c-2.2,0-4.1-0.9-5.5-2.6c-1.5-1.7-2.2-4-2.2-6.7c0-1.6,0.3-3.1,0.8-4.7c0.5-1.5,1.2-2.9,2.2-4.2c1-1.4,2.2-2.4,3.5-3.2
		c1.3-0.7,2.7-1.1,4.1-1.1c1.3,0,2.5,0.3,3.4,0.9s1.8,1.5,2.5,2.8L206.1,102.4z M201.8,110.2c-0.8,0-1.5,0.3-2,0.9s-0.8,1.4-0.8,2.4
		c0,0.8,0.2,1.3,0.6,1.7c0.4,0.4,0.9,0.6,1.6,0.6c0.9,0,1.6-0.3,2.1-0.9c0.5-0.6,0.8-1.4,0.8-2.3c0-0.8-0.2-1.4-0.6-1.8
		C203.1,110.4,202.5,110.2,201.8,110.2z"/>
	<path class="st0" d="M227.2,123.3h-9.7l5.8-31.4h9.8L227.2,123.3z"/>
	<path class="st0" d="M245.7,123.3l15.5-29.6h11.7l3.9,29.6h-10.5l-0.2-3.9h-7.1l-1.6,3.9H245.7z M261.8,112.3h3.8l-0.1-3.2
		c0-0.2,0-0.4,0-0.7c-0.1-1.3-0.1-2.4-0.1-3.2c0-0.5,0-1,0-1.2s0-0.6,0-0.8c-0.2,0.8-0.5,1.6-0.7,2.3c-0.3,0.7-0.5,1.4-0.7,2
		L261.8,112.3z"/>
	<path class="st0" d="M296.6,102.4h9.6l-3.6,18.9c-0.7,3.6-2.1,6.3-4.4,8.2c-2.3,1.8-5.2,2.8-8.9,2.8c-1.6,0-3.2-0.2-4.8-0.6
		c-1.6-0.4-3.2-1-4.9-1.8l3.3-6c0.9,0.6,1.8,1.1,2.7,1.3c0.9,0.3,1.8,0.4,2.7,0.4c1.3,0,2.3-0.4,3.2-1.1c0.9-0.7,1.5-1.8,1.9-3.2
		l0.5-1.8c-0.9,1.1-1.9,2-2.9,2.6c-1.1,0.6-2.2,0.9-3.4,0.9c-2.3,0-4.2-0.8-5.7-2.3c-1.4-1.5-2.1-3.6-2.1-6.1c0-1.5,0.3-3,0.8-4.5
		c0.5-1.5,1.2-2.9,2.1-4.1c1-1.4,2.2-2.4,3.5-3.1s2.7-1.1,4.2-1.1c1.3,0,2.5,0.3,3.4,0.9c1,0.6,1.8,1.5,2.5,2.7L296.6,102.4z
		 M292.4,110c-0.8,0-1.5,0.3-2,0.9c-0.5,0.6-0.8,1.4-0.8,2.3c0,0.7,0.2,1.3,0.6,1.7s0.9,0.6,1.6,0.6c0.9,0,1.6-0.3,2.1-0.9
		c0.6-0.6,0.8-1.3,0.8-2.3c0-0.7-0.2-1.3-0.6-1.8C293.7,110.2,293.1,110,292.4,110z"/>
	<path class="st0" d="M331.8,114H318c0,1.1,0.2,1.9,0.7,2.4c0.4,0.6,1.1,0.9,1.9,0.9c0.6,0,1.1-0.1,1.5-0.4c0.4-0.3,0.9-0.8,1.4-1.4
		l7.4,1.6c-1.2,2.3-2.8,4.1-4.7,5.2c-1.9,1.2-4.2,1.8-6.8,1.8c-3,0-5.5-0.9-7.5-2.7s-2.9-4.2-2.9-7c0-1.7,0.3-3.3,0.9-4.8
		c0.6-1.5,1.4-2.8,2.5-3.9c1.2-1.3,2.6-2.2,4.2-2.9c1.6-0.7,3.3-1,5.1-1c3,0,5.6,0.9,7.5,2.7s2.9,4,2.9,6.7c0,0.5,0,1,0,1.5
		C331.9,113.1,331.9,113.5,331.8,114z M318.5,110.2h5v-0.3c0-0.7-0.2-1.2-0.5-1.6s-0.8-0.6-1.4-0.6c-0.8,0-1.4,0.2-1.9,0.6
		C319.2,108.7,318.8,109.3,318.5,110.2z"/>
	<path class="st0" d="M334,123.3l3.9-20.9h9.3l-0.6,3c1.2-1.2,2.4-2.1,3.7-2.8c1.2-0.6,2.5-0.9,3.7-0.9c1.8,0,3.3,0.6,4.4,1.7
		c1.1,1.1,1.6,2.7,1.6,4.5c0,0.5,0,1.1-0.1,1.8c-0.1,0.7-0.2,1.4-0.3,2.1l-2.1,11.4h-9.9l1.9-10.5c0.1-0.4,0.1-0.7,0.2-1.1
		c0-0.3,0.1-0.7,0.1-1c0-0.4-0.1-0.7-0.3-0.9s-0.5-0.4-0.9-0.4c-0.7,0-1.3,0.3-1.8,1c-0.4,0.7-0.8,1.8-1.1,3.5l-1.7,9.3H334z"/>
	<path class="st0" d="M378.1,123.3c-0.9,0.3-1.7,0.5-2.4,0.6c-0.7,0.1-1.4,0.2-2.1,0.2c-3,0-5.4-0.9-7.3-2.7c-1.9-1.8-2.8-4.2-2.8-7
		c0-1.7,0.3-3.3,0.9-4.8c0.6-1.5,1.4-2.8,2.5-4c1.2-1.2,2.6-2.2,4.2-2.8s3.3-1,5.1-1c1,0,2,0.1,2.9,0.3c0.9,0.2,1.8,0.5,2.7,0.9
		l-1.4,7.8c-0.6-0.4-1.2-0.7-1.8-0.9c-0.5-0.2-1-0.3-1.5-0.3c-1.1,0-2,0.3-2.7,1c-0.7,0.7-1,1.6-1,2.7c0,1,0.3,1.7,0.9,2.3
		c0.6,0.6,1.4,0.9,2.4,0.9c0.4,0,0.9-0.1,1.3-0.2c0.5-0.1,0.9-0.3,1.5-0.6L378.1,123.3z"/>
	<path class="st0" d="M380.6,132.3l7.8-12.8l-4.7-17.2h9.4l1,5.2c0.2,0.8,0.3,1.5,0.4,2.2s0.1,1.2,0.2,1.8c0.1-0.6,0.3-1.2,0.6-1.9
		c0.2-0.7,0.6-1.4,0.9-2.1l2.5-5.1H409l-17.6,29.9H380.6z"/>
</g>
</svg>
